# xmcd CD database file
#
# Track frame offsets:
#	150
#	21735
#	39987
#	57610
#	78770
#	96957
#	118220
#	138547
#	161040
#	182247
#
# Disc length: 2739 seconds
#
# Revision: 2
# Processed by: cddbd v1.5.1PL0 Copyright (c) Steve Scherf et al.
# Submitted via: CDex 1.51
#
DISCID=8f0ab10a
DTITLE=Maylee Thomas - Rythm Of The Blues
DYEAR=1994
DGENRE=Blues
TTITLE0=Beyond My Wildest Dreams
TTITLE1=I Can Stand A Little Rain
TTITLE2=Rythm Of The Blues
TTITLE3=Soul Shine
TTITLE4=The Real Thing
TTITLE5=I`ve Got You
TTITLE6=Wrong Man
TTITLE7=Every Little Bit Hurts
TTITLE8=Midnight Rider
TTITLE9=Piece Of My Heart
EXTD=YEAR: 1994
EXTT0=
EXTT1=
EXTT2=
EXTT3=
EXTT4=
EXTT5=
EXTT6=
EXTT7=
EXTT8=
EXTT9=
PLAYORDER=
